<mxfile host="Electron" modified="2023-09-10T20:13:04.139Z" agent="Mozilla/5.0 (Windows NT 10.0; Win64; x64) AppleWebKit/537.36 (KHTML, like Gecko) draw.io/21.6.8 Chrome/114.0.5735.289 Electron/25.5.0 Safari/537.36" etag="it03dbwclohpKCGkHUOt" version="21.6.8" type="device">
  <diagram name="Página-1" id="hXJ0s1wKBTUplv9dP7Eq">
    <mxGraphModel dx="-1943" dy="749" grid="1" gridSize="10" guides="1" tooltips="1" connect="1" arrows="1" fold="1" page="0" pageScale="1" pageWidth="827" pageHeight="1169" math="0" shadow="0">
      <root>
        <mxCell id="0" />
        <mxCell id="1" parent="0" />
        <mxCell id="cr4gC9lYSwk-nvcHiaxD-121" value="Cliente&lt;br&gt;" style="swimlane;horizontal=0;whiteSpace=wrap;html=1;" parent="1" vertex="1">
          <mxGeometry x="3450" y="695" width="1210" height="200" as="geometry" />
        </mxCell>
        <mxCell id="cr4gC9lYSwk-nvcHiaxD-128" style="edgeStyle=orthogonalEdgeStyle;rounded=0;orthogonalLoop=1;jettySize=auto;html=1;entryX=0;entryY=0.5;entryDx=0;entryDy=0;" parent="cr4gC9lYSwk-nvcHiaxD-121" source="cr4gC9lYSwk-nvcHiaxD-124" target="cr4gC9lYSwk-nvcHiaxD-126" edge="1">
          <mxGeometry relative="1" as="geometry" />
        </mxCell>
        <mxCell id="cr4gC9lYSwk-nvcHiaxD-124" value="" style="ellipse;whiteSpace=wrap;html=1;aspect=fixed;fillColor=#008a00;fontColor=#ffffff;strokeColor=#005700;" parent="cr4gC9lYSwk-nvcHiaxD-121" vertex="1">
          <mxGeometry x="70" y="60" width="80" height="80" as="geometry" />
        </mxCell>
        <mxCell id="cr4gC9lYSwk-nvcHiaxD-125" value="" style="ellipse;whiteSpace=wrap;html=1;aspect=fixed;fillColor=#a20025;fontColor=#ffffff;strokeColor=#6F0000;" parent="cr4gC9lYSwk-nvcHiaxD-121" vertex="1">
          <mxGeometry x="1099" y="60" width="80" height="80" as="geometry" />
        </mxCell>
        <mxCell id="cr4gC9lYSwk-nvcHiaxD-126" value="Incidente" style="rounded=0;whiteSpace=wrap;html=1;" parent="cr4gC9lYSwk-nvcHiaxD-121" vertex="1">
          <mxGeometry x="272" y="70" width="120" height="60" as="geometry" />
        </mxCell>
        <mxCell id="cr4gC9lYSwk-nvcHiaxD-129" style="edgeStyle=orthogonalEdgeStyle;rounded=0;orthogonalLoop=1;jettySize=auto;html=1;" parent="cr4gC9lYSwk-nvcHiaxD-121" source="cr4gC9lYSwk-nvcHiaxD-127" target="cr4gC9lYSwk-nvcHiaxD-125" edge="1">
          <mxGeometry relative="1" as="geometry" />
        </mxCell>
        <mxCell id="cr4gC9lYSwk-nvcHiaxD-127" value="Finalizado" style="rounded=0;whiteSpace=wrap;html=1;" parent="cr4gC9lYSwk-nvcHiaxD-121" vertex="1">
          <mxGeometry x="900" y="70" width="120" height="60" as="geometry" />
        </mxCell>
        <mxCell id="cJJyXfFSYkXoEC7p0idP-39" value="" style="edgeStyle=orthogonalEdgeStyle;rounded=0;orthogonalLoop=1;jettySize=auto;html=1;" edge="1" parent="cr4gC9lYSwk-nvcHiaxD-121" source="cJJyXfFSYkXoEC7p0idP-37" target="cr4gC9lYSwk-nvcHiaxD-127">
          <mxGeometry relative="1" as="geometry" />
        </mxCell>
        <mxCell id="cJJyXfFSYkXoEC7p0idP-37" value="Informa o cliente" style="rounded=0;whiteSpace=wrap;html=1;" vertex="1" parent="cr4gC9lYSwk-nvcHiaxD-121">
          <mxGeometry x="710" y="70" width="120" height="60" as="geometry" />
        </mxCell>
        <mxCell id="cr4gC9lYSwk-nvcHiaxD-130" value="N1" style="swimlane;horizontal=0;whiteSpace=wrap;html=1;" parent="1" vertex="1">
          <mxGeometry x="3450" y="895" width="1210" height="315" as="geometry" />
        </mxCell>
        <mxCell id="cr4gC9lYSwk-nvcHiaxD-141" value="" style="edgeStyle=orthogonalEdgeStyle;rounded=0;orthogonalLoop=1;jettySize=auto;html=1;" parent="cr4gC9lYSwk-nvcHiaxD-130" source="cr4gC9lYSwk-nvcHiaxD-134" target="cr4gC9lYSwk-nvcHiaxD-139" edge="1">
          <mxGeometry relative="1" as="geometry" />
        </mxCell>
        <mxCell id="cr4gC9lYSwk-nvcHiaxD-134" value="Recebe" style="rounded=0;whiteSpace=wrap;html=1;" parent="cr4gC9lYSwk-nvcHiaxD-130" vertex="1">
          <mxGeometry x="100" y="25" width="100" height="45" as="geometry" />
        </mxCell>
        <mxCell id="cr4gC9lYSwk-nvcHiaxD-142" value="" style="edgeStyle=orthogonalEdgeStyle;rounded=0;orthogonalLoop=1;jettySize=auto;html=1;" parent="cr4gC9lYSwk-nvcHiaxD-130" source="cr4gC9lYSwk-nvcHiaxD-139" target="cr4gC9lYSwk-nvcHiaxD-140" edge="1">
          <mxGeometry relative="1" as="geometry" />
        </mxCell>
        <mxCell id="cr4gC9lYSwk-nvcHiaxD-139" value="Registra" style="rounded=0;whiteSpace=wrap;html=1;" parent="cr4gC9lYSwk-nvcHiaxD-130" vertex="1">
          <mxGeometry x="100" y="95" width="100" height="45" as="geometry" />
        </mxCell>
        <mxCell id="cr4gC9lYSwk-nvcHiaxD-145" value="" style="edgeStyle=orthogonalEdgeStyle;rounded=0;orthogonalLoop=1;jettySize=auto;html=1;entryX=0;entryY=0.5;entryDx=0;entryDy=0;" parent="cr4gC9lYSwk-nvcHiaxD-130" target="cr4gC9lYSwk-nvcHiaxD-144" edge="1">
          <mxGeometry relative="1" as="geometry">
            <mxPoint x="199" y="187.48000000000002" as="sourcePoint" />
            <mxPoint x="271.17999999999984" y="92.00499999999988" as="targetPoint" />
            <Array as="points">
              <mxPoint x="199" y="245" />
              <mxPoint x="220" y="245" />
              <mxPoint x="220" y="93" />
            </Array>
          </mxGeometry>
        </mxCell>
        <mxCell id="cJJyXfFSYkXoEC7p0idP-3" value="" style="edgeStyle=orthogonalEdgeStyle;rounded=0;orthogonalLoop=1;jettySize=auto;html=1;" edge="1" parent="cr4gC9lYSwk-nvcHiaxD-130" source="cr4gC9lYSwk-nvcHiaxD-140" target="cJJyXfFSYkXoEC7p0idP-1">
          <mxGeometry relative="1" as="geometry" />
        </mxCell>
        <mxCell id="cr4gC9lYSwk-nvcHiaxD-140" value="Prioriza" style="rounded=0;whiteSpace=wrap;html=1;" parent="cr4gC9lYSwk-nvcHiaxD-130" vertex="1">
          <mxGeometry x="100" y="165" width="100" height="45" as="geometry" />
        </mxCell>
        <mxCell id="cr4gC9lYSwk-nvcHiaxD-150" value="" style="edgeStyle=orthogonalEdgeStyle;rounded=0;orthogonalLoop=1;jettySize=auto;html=1;" parent="cr4gC9lYSwk-nvcHiaxD-130" source="cr4gC9lYSwk-nvcHiaxD-144" target="cr4gC9lYSwk-nvcHiaxD-149" edge="1">
          <mxGeometry relative="1" as="geometry" />
        </mxCell>
        <mxCell id="cr4gC9lYSwk-nvcHiaxD-155" value="" style="edgeStyle=orthogonalEdgeStyle;rounded=0;orthogonalLoop=1;jettySize=auto;html=1;" parent="cr4gC9lYSwk-nvcHiaxD-130" source="cr4gC9lYSwk-nvcHiaxD-144" edge="1">
          <mxGeometry relative="1" as="geometry">
            <mxPoint x="430" y="92.5" as="targetPoint" />
          </mxGeometry>
        </mxCell>
        <mxCell id="cr4gC9lYSwk-nvcHiaxD-144" value="" style="rhombus;whiteSpace=wrap;html=1;rounded=0;" parent="cr4gC9lYSwk-nvcHiaxD-130" vertex="1">
          <mxGeometry x="290" y="65" width="60" height="55" as="geometry" />
        </mxCell>
        <mxCell id="cr4gC9lYSwk-nvcHiaxD-146" value="Resolveu?" style="text;html=1;strokeColor=none;fillColor=none;align=center;verticalAlign=middle;whiteSpace=wrap;rounded=0;" parent="cr4gC9lYSwk-nvcHiaxD-130" vertex="1">
          <mxGeometry x="240" y="70" width="40" height="10" as="geometry" />
        </mxCell>
        <mxCell id="cr4gC9lYSwk-nvcHiaxD-149" value="Escalona para Nivel 2" style="whiteSpace=wrap;html=1;rounded=0;" parent="cr4gC9lYSwk-nvcHiaxD-130" vertex="1">
          <mxGeometry x="275" y="195" width="90" height="35" as="geometry" />
        </mxCell>
        <mxCell id="cr4gC9lYSwk-nvcHiaxD-151" value="Não" style="text;html=1;strokeColor=none;fillColor=none;align=center;verticalAlign=middle;whiteSpace=wrap;rounded=0;" parent="cr4gC9lYSwk-nvcHiaxD-130" vertex="1">
          <mxGeometry x="340" y="140" width="40" height="10" as="geometry" />
        </mxCell>
        <mxCell id="cr4gC9lYSwk-nvcHiaxD-156" value="Sim" style="text;html=1;strokeColor=none;fillColor=none;align=center;verticalAlign=middle;whiteSpace=wrap;rounded=0;" parent="cr4gC9lYSwk-nvcHiaxD-130" vertex="1">
          <mxGeometry x="365" y="70" width="40" height="10" as="geometry" />
        </mxCell>
        <mxCell id="cr4gC9lYSwk-nvcHiaxD-160" style="edgeStyle=orthogonalEdgeStyle;rounded=0;orthogonalLoop=1;jettySize=auto;html=1;" parent="cr4gC9lYSwk-nvcHiaxD-130" source="cr4gC9lYSwk-nvcHiaxD-158" edge="1">
          <mxGeometry relative="1" as="geometry">
            <mxPoint x="640" y="92.49999999999977" as="targetPoint" />
          </mxGeometry>
        </mxCell>
        <mxCell id="cr4gC9lYSwk-nvcHiaxD-158" value="Resolvido" style="rounded=0;whiteSpace=wrap;html=1;" parent="cr4gC9lYSwk-nvcHiaxD-130" vertex="1">
          <mxGeometry x="430" y="70" width="100" height="45" as="geometry" />
        </mxCell>
        <mxCell id="cr4gC9lYSwk-nvcHiaxD-159" value="" style="shape=datastore;whiteSpace=wrap;html=1;" parent="cr4gC9lYSwk-nvcHiaxD-130" vertex="1">
          <mxGeometry x="640" y="65" width="60" height="60" as="geometry" />
        </mxCell>
        <mxCell id="cr4gC9lYSwk-nvcHiaxD-182" style="edgeStyle=orthogonalEdgeStyle;rounded=0;orthogonalLoop=1;jettySize=auto;html=1;exitX=0.5;exitY=1;exitDx=0;exitDy=0;" parent="cr4gC9lYSwk-nvcHiaxD-130" source="cr4gC9lYSwk-nvcHiaxD-149" target="cr4gC9lYSwk-nvcHiaxD-149" edge="1">
          <mxGeometry relative="1" as="geometry" />
        </mxCell>
        <mxCell id="cJJyXfFSYkXoEC7p0idP-1" value="Classifica" style="rounded=0;whiteSpace=wrap;html=1;" vertex="1" parent="cr4gC9lYSwk-nvcHiaxD-130">
          <mxGeometry x="100" y="225" width="100" height="45" as="geometry" />
        </mxCell>
        <mxCell id="cr4gC9lYSwk-nvcHiaxD-138" style="edgeStyle=orthogonalEdgeStyle;rounded=0;orthogonalLoop=1;jettySize=auto;html=1;" parent="1" source="cr4gC9lYSwk-nvcHiaxD-126" target="cr4gC9lYSwk-nvcHiaxD-134" edge="1">
          <mxGeometry relative="1" as="geometry">
            <Array as="points">
              <mxPoint x="3782" y="870" />
              <mxPoint x="3600" y="870" />
            </Array>
          </mxGeometry>
        </mxCell>
        <mxCell id="cr4gC9lYSwk-nvcHiaxD-226" value="N2&lt;br&gt;" style="swimlane;horizontal=0;whiteSpace=wrap;html=1;" parent="1" vertex="1">
          <mxGeometry x="3450" y="1210" width="1210" height="330" as="geometry" />
        </mxCell>
        <mxCell id="cr4gC9lYSwk-nvcHiaxD-227" style="edgeStyle=orthogonalEdgeStyle;rounded=0;orthogonalLoop=1;jettySize=auto;html=1;entryX=0.5;entryY=0;entryDx=0;entryDy=0;" parent="cr4gC9lYSwk-nvcHiaxD-226" source="cr4gC9lYSwk-nvcHiaxD-228" target="cr4gC9lYSwk-nvcHiaxD-230" edge="1">
          <mxGeometry relative="1" as="geometry" />
        </mxCell>
        <mxCell id="cr4gC9lYSwk-nvcHiaxD-228" value="Recebe o chamado do nivel 1&lt;br&gt;" style="whiteSpace=wrap;html=1;rounded=0;" parent="cr4gC9lYSwk-nvcHiaxD-226" vertex="1">
          <mxGeometry x="70" y="19" width="110" height="39" as="geometry" />
        </mxCell>
        <mxCell id="cr4gC9lYSwk-nvcHiaxD-229" value="" style="edgeStyle=orthogonalEdgeStyle;rounded=0;orthogonalLoop=1;jettySize=auto;html=1;" parent="cr4gC9lYSwk-nvcHiaxD-226" source="cr4gC9lYSwk-nvcHiaxD-230" target="cr4gC9lYSwk-nvcHiaxD-232" edge="1">
          <mxGeometry relative="1" as="geometry" />
        </mxCell>
        <mxCell id="cr4gC9lYSwk-nvcHiaxD-230" value="Realiza o diagnóstico" style="rounded=0;whiteSpace=wrap;html=1;" parent="cr4gC9lYSwk-nvcHiaxD-226" vertex="1">
          <mxGeometry x="75" y="101.5" width="100" height="45" as="geometry" />
        </mxCell>
        <mxCell id="cr4gC9lYSwk-nvcHiaxD-231" value="" style="edgeStyle=orthogonalEdgeStyle;rounded=0;orthogonalLoop=1;jettySize=auto;html=1;" parent="cr4gC9lYSwk-nvcHiaxD-226" source="cr4gC9lYSwk-nvcHiaxD-232" target="cr4gC9lYSwk-nvcHiaxD-235" edge="1">
          <mxGeometry relative="1" as="geometry" />
        </mxCell>
        <mxCell id="cr4gC9lYSwk-nvcHiaxD-232" value="Identifica quando um incidente é um problema" style="rounded=0;whiteSpace=wrap;html=1;" parent="cr4gC9lYSwk-nvcHiaxD-226" vertex="1">
          <mxGeometry x="75" y="187.5" width="100" height="45" as="geometry" />
        </mxCell>
        <mxCell id="cr4gC9lYSwk-nvcHiaxD-233" style="edgeStyle=orthogonalEdgeStyle;rounded=0;orthogonalLoop=1;jettySize=auto;html=1;entryX=1;entryY=0.5;entryDx=0;entryDy=0;" parent="cr4gC9lYSwk-nvcHiaxD-226" source="cr4gC9lYSwk-nvcHiaxD-235" target="cr4gC9lYSwk-nvcHiaxD-237" edge="1">
          <mxGeometry relative="1" as="geometry">
            <mxPoint x="310" y="287.5" as="targetPoint" />
          </mxGeometry>
        </mxCell>
        <mxCell id="cr4gC9lYSwk-nvcHiaxD-234" value="" style="edgeStyle=orthogonalEdgeStyle;rounded=0;orthogonalLoop=1;jettySize=auto;html=1;" parent="cr4gC9lYSwk-nvcHiaxD-226" source="cr4gC9lYSwk-nvcHiaxD-235" target="cr4gC9lYSwk-nvcHiaxD-241" edge="1">
          <mxGeometry relative="1" as="geometry" />
        </mxCell>
        <mxCell id="cr4gC9lYSwk-nvcHiaxD-235" value="" style="rhombus;whiteSpace=wrap;html=1;rounded=0;" parent="cr4gC9lYSwk-nvcHiaxD-226" vertex="1">
          <mxGeometry x="280" y="182.5" width="60" height="55" as="geometry" />
        </mxCell>
        <mxCell id="cr4gC9lYSwk-nvcHiaxD-236" value="Continua como incidente?" style="text;html=1;strokeColor=none;fillColor=none;align=center;verticalAlign=middle;whiteSpace=wrap;rounded=0;" parent="cr4gC9lYSwk-nvcHiaxD-226" vertex="1">
          <mxGeometry x="180" y="187.5" width="100" height="10" as="geometry" />
        </mxCell>
        <mxCell id="cr4gC9lYSwk-nvcHiaxD-237" value="Começa a ser tratado como problema" style="rounded=0;whiteSpace=wrap;html=1;" parent="cr4gC9lYSwk-nvcHiaxD-226" vertex="1">
          <mxGeometry x="180" y="267.5" width="100" height="52.5" as="geometry" />
        </mxCell>
        <mxCell id="cr4gC9lYSwk-nvcHiaxD-238" value="Não" style="text;html=1;strokeColor=none;fillColor=none;align=center;verticalAlign=middle;whiteSpace=wrap;rounded=0;" parent="cr4gC9lYSwk-nvcHiaxD-226" vertex="1">
          <mxGeometry x="320" y="257.5" width="40" height="10" as="geometry" />
        </mxCell>
        <mxCell id="cr4gC9lYSwk-nvcHiaxD-239" value="" style="edgeStyle=orthogonalEdgeStyle;rounded=0;orthogonalLoop=1;jettySize=auto;html=1;" parent="cr4gC9lYSwk-nvcHiaxD-226" source="cr4gC9lYSwk-nvcHiaxD-241" target="cr4gC9lYSwk-nvcHiaxD-245" edge="1">
          <mxGeometry relative="1" as="geometry" />
        </mxCell>
        <mxCell id="cr4gC9lYSwk-nvcHiaxD-240" value="" style="edgeStyle=orthogonalEdgeStyle;rounded=0;orthogonalLoop=1;jettySize=auto;html=1;" parent="cr4gC9lYSwk-nvcHiaxD-226" source="cr4gC9lYSwk-nvcHiaxD-241" target="cr4gC9lYSwk-nvcHiaxD-247" edge="1">
          <mxGeometry relative="1" as="geometry" />
        </mxCell>
        <mxCell id="cr4gC9lYSwk-nvcHiaxD-241" value="" style="rhombus;whiteSpace=wrap;html=1;rounded=0;" parent="cr4gC9lYSwk-nvcHiaxD-226" vertex="1">
          <mxGeometry x="390" y="182.5" width="60" height="55" as="geometry" />
        </mxCell>
        <mxCell id="cr4gC9lYSwk-nvcHiaxD-242" value="Sim" style="text;html=1;strokeColor=none;fillColor=none;align=center;verticalAlign=middle;whiteSpace=wrap;rounded=0;" parent="cr4gC9lYSwk-nvcHiaxD-226" vertex="1">
          <mxGeometry x="340" y="187.5" width="40" height="10" as="geometry" />
        </mxCell>
        <mxCell id="cr4gC9lYSwk-nvcHiaxD-243" value="Consegue resolver" style="text;html=1;strokeColor=none;fillColor=none;align=center;verticalAlign=middle;whiteSpace=wrap;rounded=0;" parent="cr4gC9lYSwk-nvcHiaxD-226" vertex="1">
          <mxGeometry x="435" y="146.5" width="40" height="10" as="geometry" />
        </mxCell>
        <mxCell id="cr4gC9lYSwk-nvcHiaxD-244" value="Não consegue resolver" style="text;html=1;strokeColor=none;fillColor=none;align=center;verticalAlign=middle;whiteSpace=wrap;rounded=0;" parent="cr4gC9lYSwk-nvcHiaxD-226" vertex="1">
          <mxGeometry x="430" y="240" width="50" height="33.5" as="geometry" />
        </mxCell>
        <mxCell id="cr4gC9lYSwk-nvcHiaxD-245" value="Escalona para Nivel 3" style="whiteSpace=wrap;html=1;rounded=0;" parent="cr4gC9lYSwk-nvcHiaxD-226" vertex="1">
          <mxGeometry x="375" y="285" width="90" height="35" as="geometry" />
        </mxCell>
        <mxCell id="cr4gC9lYSwk-nvcHiaxD-246" style="edgeStyle=orthogonalEdgeStyle;rounded=0;orthogonalLoop=1;jettySize=auto;html=1;entryX=0;entryY=0.5;entryDx=0;entryDy=0;" parent="cr4gC9lYSwk-nvcHiaxD-226" source="cr4gC9lYSwk-nvcHiaxD-247" target="cr4gC9lYSwk-nvcHiaxD-248" edge="1">
          <mxGeometry relative="1" as="geometry" />
        </mxCell>
        <mxCell id="cr4gC9lYSwk-nvcHiaxD-247" value="Resolvido" style="rounded=0;whiteSpace=wrap;html=1;" parent="cr4gC9lYSwk-nvcHiaxD-226" vertex="1">
          <mxGeometry x="370" y="77.5" width="100" height="45" as="geometry" />
        </mxCell>
        <mxCell id="cr4gC9lYSwk-nvcHiaxD-248" value="" style="shape=datastore;whiteSpace=wrap;html=1;" parent="cr4gC9lYSwk-nvcHiaxD-226" vertex="1">
          <mxGeometry x="640" y="70" width="60" height="60" as="geometry" />
        </mxCell>
        <mxCell id="cJJyXfFSYkXoEC7p0idP-7" value="N3&lt;br&gt;" style="swimlane;horizontal=0;whiteSpace=wrap;html=1;" vertex="1" parent="1">
          <mxGeometry x="3450" y="1540" width="1210" height="390" as="geometry" />
        </mxCell>
        <mxCell id="cJJyXfFSYkXoEC7p0idP-11" style="edgeStyle=orthogonalEdgeStyle;rounded=0;orthogonalLoop=1;jettySize=auto;html=1;entryX=0.5;entryY=0;entryDx=0;entryDy=0;" edge="1" parent="cJJyXfFSYkXoEC7p0idP-7" source="cJJyXfFSYkXoEC7p0idP-8" target="cJJyXfFSYkXoEC7p0idP-10">
          <mxGeometry relative="1" as="geometry" />
        </mxCell>
        <mxCell id="cJJyXfFSYkXoEC7p0idP-8" value="Recebe o chamado do nivel 3" style="whiteSpace=wrap;html=1;rounded=0;" vertex="1" parent="cJJyXfFSYkXoEC7p0idP-7">
          <mxGeometry x="75" y="40" width="110" height="39" as="geometry" />
        </mxCell>
        <mxCell id="cJJyXfFSYkXoEC7p0idP-13" value="" style="edgeStyle=orthogonalEdgeStyle;rounded=0;orthogonalLoop=1;jettySize=auto;html=1;" edge="1" parent="cJJyXfFSYkXoEC7p0idP-7" source="cJJyXfFSYkXoEC7p0idP-10" target="cJJyXfFSYkXoEC7p0idP-12">
          <mxGeometry relative="1" as="geometry" />
        </mxCell>
        <mxCell id="cJJyXfFSYkXoEC7p0idP-10" value="Realiza o diagnóstico" style="rounded=0;whiteSpace=wrap;html=1;" vertex="1" parent="cJJyXfFSYkXoEC7p0idP-7">
          <mxGeometry x="80" y="110" width="100" height="45" as="geometry" />
        </mxCell>
        <mxCell id="cJJyXfFSYkXoEC7p0idP-19" value="" style="edgeStyle=orthogonalEdgeStyle;rounded=0;orthogonalLoop=1;jettySize=auto;html=1;" edge="1" parent="cJJyXfFSYkXoEC7p0idP-7" source="cJJyXfFSYkXoEC7p0idP-12" target="cJJyXfFSYkXoEC7p0idP-18">
          <mxGeometry relative="1" as="geometry" />
        </mxCell>
        <mxCell id="cJJyXfFSYkXoEC7p0idP-23" value="" style="edgeStyle=orthogonalEdgeStyle;rounded=0;orthogonalLoop=1;jettySize=auto;html=1;" edge="1" parent="cJJyXfFSYkXoEC7p0idP-7" source="cJJyXfFSYkXoEC7p0idP-12" target="cJJyXfFSYkXoEC7p0idP-22">
          <mxGeometry relative="1" as="geometry" />
        </mxCell>
        <mxCell id="cJJyXfFSYkXoEC7p0idP-12" value="" style="rhombus;whiteSpace=wrap;html=1;rounded=0;" vertex="1" parent="cJJyXfFSYkXoEC7p0idP-7">
          <mxGeometry x="100" y="214" width="60" height="55" as="geometry" />
        </mxCell>
        <mxCell id="cJJyXfFSYkXoEC7p0idP-15" value="Consegue resolver?" style="text;html=1;strokeColor=none;fillColor=none;align=center;verticalAlign=middle;whiteSpace=wrap;rounded=0;" vertex="1" parent="cJJyXfFSYkXoEC7p0idP-7">
          <mxGeometry x="130" y="170" width="60" height="30" as="geometry" />
        </mxCell>
        <mxCell id="cJJyXfFSYkXoEC7p0idP-28" value="" style="edgeStyle=orthogonalEdgeStyle;rounded=0;orthogonalLoop=1;jettySize=auto;html=1;" edge="1" parent="cJJyXfFSYkXoEC7p0idP-7" source="cJJyXfFSYkXoEC7p0idP-18" target="cJJyXfFSYkXoEC7p0idP-27">
          <mxGeometry relative="1" as="geometry" />
        </mxCell>
        <mxCell id="cJJyXfFSYkXoEC7p0idP-18" value="Solução de Contorno" style="whiteSpace=wrap;html=1;rounded=0;" vertex="1" parent="cJJyXfFSYkXoEC7p0idP-7">
          <mxGeometry x="280" y="220.75" width="90" height="41.5" as="geometry" />
        </mxCell>
        <mxCell id="cJJyXfFSYkXoEC7p0idP-42" style="edgeStyle=orthogonalEdgeStyle;rounded=0;orthogonalLoop=1;jettySize=auto;html=1;entryX=0.5;entryY=1;entryDx=0;entryDy=0;" edge="1" parent="cJJyXfFSYkXoEC7p0idP-7" source="cJJyXfFSYkXoEC7p0idP-22" target="cJJyXfFSYkXoEC7p0idP-35">
          <mxGeometry relative="1" as="geometry">
            <mxPoint x="690" y="280" as="targetPoint" />
          </mxGeometry>
        </mxCell>
        <mxCell id="cJJyXfFSYkXoEC7p0idP-22" value="Chama o Fornecedor" style="shape=process;whiteSpace=wrap;html=1;backgroundOutline=1;" vertex="1" parent="cJJyXfFSYkXoEC7p0idP-7">
          <mxGeometry x="70" y="310" width="120" height="60" as="geometry" />
        </mxCell>
        <mxCell id="cJJyXfFSYkXoEC7p0idP-24" value="Sim" style="text;html=1;strokeColor=none;fillColor=none;align=center;verticalAlign=middle;whiteSpace=wrap;rounded=0;" vertex="1" parent="cJJyXfFSYkXoEC7p0idP-7">
          <mxGeometry x="190" y="210" width="60" height="30" as="geometry" />
        </mxCell>
        <mxCell id="cJJyXfFSYkXoEC7p0idP-26" value="Não" style="text;html=1;strokeColor=none;fillColor=none;align=center;verticalAlign=middle;whiteSpace=wrap;rounded=0;" vertex="1" parent="cJJyXfFSYkXoEC7p0idP-7">
          <mxGeometry x="120" y="270" width="60" height="30" as="geometry" />
        </mxCell>
        <mxCell id="cJJyXfFSYkXoEC7p0idP-30" style="edgeStyle=orthogonalEdgeStyle;rounded=0;orthogonalLoop=1;jettySize=auto;html=1;entryX=0.5;entryY=1;entryDx=0;entryDy=0;" edge="1" parent="cJJyXfFSYkXoEC7p0idP-7" source="cJJyXfFSYkXoEC7p0idP-27" target="cJJyXfFSYkXoEC7p0idP-18">
          <mxGeometry relative="1" as="geometry">
            <Array as="points">
              <mxPoint x="512" y="292" />
              <mxPoint x="325" y="292" />
            </Array>
          </mxGeometry>
        </mxCell>
        <mxCell id="cJJyXfFSYkXoEC7p0idP-36" value="" style="edgeStyle=orthogonalEdgeStyle;rounded=0;orthogonalLoop=1;jettySize=auto;html=1;" edge="1" parent="cJJyXfFSYkXoEC7p0idP-7" source="cJJyXfFSYkXoEC7p0idP-27" target="cJJyXfFSYkXoEC7p0idP-35">
          <mxGeometry relative="1" as="geometry" />
        </mxCell>
        <mxCell id="cJJyXfFSYkXoEC7p0idP-27" value="" style="rhombus;whiteSpace=wrap;html=1;rounded=0;" vertex="1" parent="cJJyXfFSYkXoEC7p0idP-7">
          <mxGeometry x="480" y="210" width="65" height="61.5" as="geometry" />
        </mxCell>
        <mxCell id="cJJyXfFSYkXoEC7p0idP-29" value="Resolveu?" style="text;html=1;strokeColor=none;fillColor=none;align=center;verticalAlign=middle;whiteSpace=wrap;rounded=0;" vertex="1" parent="cJJyXfFSYkXoEC7p0idP-7">
          <mxGeometry x="400" y="210" width="60" height="30" as="geometry" />
        </mxCell>
        <mxCell id="cJJyXfFSYkXoEC7p0idP-31" value="Não" style="text;html=1;strokeColor=none;fillColor=none;align=center;verticalAlign=middle;whiteSpace=wrap;rounded=0;" vertex="1" parent="cJJyXfFSYkXoEC7p0idP-7">
          <mxGeometry x="380" y="269" width="60" height="30" as="geometry" />
        </mxCell>
        <mxCell id="cJJyXfFSYkXoEC7p0idP-34" value="Sim" style="text;html=1;strokeColor=none;fillColor=none;align=center;verticalAlign=middle;whiteSpace=wrap;rounded=0;" vertex="1" parent="cJJyXfFSYkXoEC7p0idP-7">
          <mxGeometry x="570" y="209" width="60" height="30" as="geometry" />
        </mxCell>
        <mxCell id="cJJyXfFSYkXoEC7p0idP-35" value="" style="shape=datastore;whiteSpace=wrap;html=1;" vertex="1" parent="cJJyXfFSYkXoEC7p0idP-7">
          <mxGeometry x="660" y="210.75" width="60" height="60" as="geometry" />
        </mxCell>
        <mxCell id="cJJyXfFSYkXoEC7p0idP-9" style="edgeStyle=orthogonalEdgeStyle;rounded=0;orthogonalLoop=1;jettySize=auto;html=1;entryX=1;entryY=0.5;entryDx=0;entryDy=0;" edge="1" parent="1" source="cr4gC9lYSwk-nvcHiaxD-245" target="cJJyXfFSYkXoEC7p0idP-8">
          <mxGeometry relative="1" as="geometry">
            <Array as="points">
              <mxPoint x="3870" y="1600" />
              <mxPoint x="3635" y="1600" />
            </Array>
          </mxGeometry>
        </mxCell>
        <mxCell id="cJJyXfFSYkXoEC7p0idP-38" style="edgeStyle=orthogonalEdgeStyle;rounded=0;orthogonalLoop=1;jettySize=auto;html=1;entryX=0;entryY=0.25;entryDx=0;entryDy=0;" edge="1" parent="1" source="cr4gC9lYSwk-nvcHiaxD-159" target="cJJyXfFSYkXoEC7p0idP-37">
          <mxGeometry relative="1" as="geometry">
            <Array as="points">
              <mxPoint x="4120" y="780" />
            </Array>
          </mxGeometry>
        </mxCell>
        <mxCell id="cJJyXfFSYkXoEC7p0idP-40" style="edgeStyle=orthogonalEdgeStyle;rounded=0;orthogonalLoop=1;jettySize=auto;html=1;entryX=0.25;entryY=1;entryDx=0;entryDy=0;" edge="1" parent="1" source="cr4gC9lYSwk-nvcHiaxD-248" target="cJJyXfFSYkXoEC7p0idP-37">
          <mxGeometry relative="1" as="geometry" />
        </mxCell>
        <mxCell id="cJJyXfFSYkXoEC7p0idP-41" style="edgeStyle=orthogonalEdgeStyle;rounded=0;orthogonalLoop=1;jettySize=auto;html=1;entryX=0.75;entryY=1;entryDx=0;entryDy=0;" edge="1" parent="1" source="cJJyXfFSYkXoEC7p0idP-35" target="cJJyXfFSYkXoEC7p0idP-37">
          <mxGeometry relative="1" as="geometry">
            <Array as="points">
              <mxPoint x="4250" y="1781" />
            </Array>
          </mxGeometry>
        </mxCell>
        <mxCell id="cJJyXfFSYkXoEC7p0idP-112" value="N1&lt;br&gt;" style="swimlane;horizontal=0;whiteSpace=wrap;html=1;" vertex="1" parent="1">
          <mxGeometry x="5800" y="375" width="800" height="360" as="geometry" />
        </mxCell>
        <mxCell id="cJJyXfFSYkXoEC7p0idP-113" value="" style="edgeStyle=orthogonalEdgeStyle;rounded=0;orthogonalLoop=1;jettySize=auto;html=1;" edge="1" parent="cJJyXfFSYkXoEC7p0idP-112" source="cJJyXfFSYkXoEC7p0idP-114" target="cJJyXfFSYkXoEC7p0idP-116">
          <mxGeometry relative="1" as="geometry" />
        </mxCell>
        <mxCell id="cJJyXfFSYkXoEC7p0idP-114" value="Recebe" style="rounded=0;whiteSpace=wrap;html=1;" vertex="1" parent="cJJyXfFSYkXoEC7p0idP-112">
          <mxGeometry x="160" y="30" width="120" height="60" as="geometry" />
        </mxCell>
        <mxCell id="cJJyXfFSYkXoEC7p0idP-115" value="" style="edgeStyle=orthogonalEdgeStyle;rounded=0;orthogonalLoop=1;jettySize=auto;html=1;" edge="1" parent="cJJyXfFSYkXoEC7p0idP-112" source="cJJyXfFSYkXoEC7p0idP-116" target="cJJyXfFSYkXoEC7p0idP-118">
          <mxGeometry relative="1" as="geometry" />
        </mxCell>
        <mxCell id="cJJyXfFSYkXoEC7p0idP-116" value="Analisa" style="rounded=0;whiteSpace=wrap;html=1;" vertex="1" parent="cJJyXfFSYkXoEC7p0idP-112">
          <mxGeometry x="160" y="150" width="120" height="60" as="geometry" />
        </mxCell>
        <mxCell id="cJJyXfFSYkXoEC7p0idP-117" style="edgeStyle=orthogonalEdgeStyle;rounded=0;orthogonalLoop=1;jettySize=auto;html=1;entryX=0;entryY=0.5;entryDx=0;entryDy=0;" edge="1" parent="cJJyXfFSYkXoEC7p0idP-112" source="cJJyXfFSYkXoEC7p0idP-118" target="cJJyXfFSYkXoEC7p0idP-120">
          <mxGeometry relative="1" as="geometry" />
        </mxCell>
        <mxCell id="cJJyXfFSYkXoEC7p0idP-118" value="Registra" style="rounded=0;whiteSpace=wrap;html=1;" vertex="1" parent="cJJyXfFSYkXoEC7p0idP-112">
          <mxGeometry x="160" y="250" width="120" height="60" as="geometry" />
        </mxCell>
        <mxCell id="cJJyXfFSYkXoEC7p0idP-119" value="" style="edgeStyle=orthogonalEdgeStyle;rounded=0;orthogonalLoop=1;jettySize=auto;html=1;" edge="1" parent="cJJyXfFSYkXoEC7p0idP-112" source="cJJyXfFSYkXoEC7p0idP-120" target="cJJyXfFSYkXoEC7p0idP-122">
          <mxGeometry relative="1" as="geometry" />
        </mxCell>
        <mxCell id="cJJyXfFSYkXoEC7p0idP-120" value="Prioriza" style="rounded=0;whiteSpace=wrap;html=1;" vertex="1" parent="cJJyXfFSYkXoEC7p0idP-112">
          <mxGeometry x="320" y="45" width="120" height="60" as="geometry" />
        </mxCell>
        <mxCell id="cJJyXfFSYkXoEC7p0idP-121" value="" style="edgeStyle=orthogonalEdgeStyle;rounded=0;orthogonalLoop=1;jettySize=auto;html=1;" edge="1" parent="cJJyXfFSYkXoEC7p0idP-112" source="cJJyXfFSYkXoEC7p0idP-122" target="cJJyXfFSYkXoEC7p0idP-125">
          <mxGeometry relative="1" as="geometry" />
        </mxCell>
        <mxCell id="cJJyXfFSYkXoEC7p0idP-122" value="" style="rhombus;whiteSpace=wrap;html=1;rounded=0;" vertex="1" parent="cJJyXfFSYkXoEC7p0idP-112">
          <mxGeometry x="340" y="225" width="80" height="80" as="geometry" />
        </mxCell>
        <mxCell id="cJJyXfFSYkXoEC7p0idP-123" value="Está requisição está se repetindo muito?" style="text;html=1;strokeColor=none;fillColor=none;align=center;verticalAlign=middle;whiteSpace=wrap;rounded=0;" vertex="1" parent="cJJyXfFSYkXoEC7p0idP-112">
          <mxGeometry x="410" y="145" width="90" height="70" as="geometry" />
        </mxCell>
        <mxCell id="cJJyXfFSYkXoEC7p0idP-156" value="" style="edgeStyle=orthogonalEdgeStyle;rounded=0;orthogonalLoop=1;jettySize=auto;html=1;" edge="1" parent="cJJyXfFSYkXoEC7p0idP-112" source="cJJyXfFSYkXoEC7p0idP-125" target="cJJyXfFSYkXoEC7p0idP-128">
          <mxGeometry relative="1" as="geometry" />
        </mxCell>
        <mxCell id="cJJyXfFSYkXoEC7p0idP-125" value="Atende requisição" style="whiteSpace=wrap;html=1;rounded=0;" vertex="1" parent="cJJyXfFSYkXoEC7p0idP-112">
          <mxGeometry x="500" y="235" width="120" height="60" as="geometry" />
        </mxCell>
        <mxCell id="cJJyXfFSYkXoEC7p0idP-126" value="Não" style="text;html=1;strokeColor=none;fillColor=none;align=center;verticalAlign=middle;whiteSpace=wrap;rounded=0;" vertex="1" parent="cJJyXfFSYkXoEC7p0idP-112">
          <mxGeometry x="370" y="225" width="160" height="40" as="geometry" />
        </mxCell>
        <mxCell id="cJJyXfFSYkXoEC7p0idP-128" value="" style="shape=datastore;whiteSpace=wrap;html=1;" vertex="1" parent="cJJyXfFSYkXoEC7p0idP-112">
          <mxGeometry x="530" y="105" width="60" height="60" as="geometry" />
        </mxCell>
        <mxCell id="cJJyXfFSYkXoEC7p0idP-155" style="edgeStyle=orthogonalEdgeStyle;rounded=0;orthogonalLoop=1;jettySize=auto;html=1;exitX=0;exitY=0.7;exitDx=0;exitDy=0;entryX=0;entryY=0.5;entryDx=0;entryDy=0;" edge="1" parent="cJJyXfFSYkXoEC7p0idP-112" source="cJJyXfFSYkXoEC7p0idP-128" target="cJJyXfFSYkXoEC7p0idP-128">
          <mxGeometry relative="1" as="geometry" />
        </mxCell>
        <mxCell id="cJJyXfFSYkXoEC7p0idP-127" value="Sim" style="text;html=1;strokeColor=none;fillColor=none;align=center;verticalAlign=middle;whiteSpace=wrap;rounded=0;" vertex="1" parent="cJJyXfFSYkXoEC7p0idP-112">
          <mxGeometry x="350" y="305" width="100" height="50" as="geometry" />
        </mxCell>
        <mxCell id="cJJyXfFSYkXoEC7p0idP-134" value="Cliente" style="swimlane;horizontal=0;whiteSpace=wrap;html=1;" vertex="1" parent="1">
          <mxGeometry x="5800" y="105" width="800" height="270" as="geometry" />
        </mxCell>
        <mxCell id="cJJyXfFSYkXoEC7p0idP-135" style="edgeStyle=orthogonalEdgeStyle;rounded=0;orthogonalLoop=1;jettySize=auto;html=1;entryX=0;entryY=0.5;entryDx=0;entryDy=0;" edge="1" parent="cJJyXfFSYkXoEC7p0idP-134" source="cJJyXfFSYkXoEC7p0idP-136" target="cJJyXfFSYkXoEC7p0idP-137">
          <mxGeometry relative="1" as="geometry" />
        </mxCell>
        <mxCell id="cJJyXfFSYkXoEC7p0idP-136" value="" style="ellipse;whiteSpace=wrap;html=1;aspect=fixed;fillColor=#008a00;fontColor=#ffffff;strokeColor=#005700;" vertex="1" parent="cJJyXfFSYkXoEC7p0idP-134">
          <mxGeometry x="60" y="110" width="50" height="50" as="geometry" />
        </mxCell>
        <mxCell id="cJJyXfFSYkXoEC7p0idP-137" value="Requisição" style="rounded=0;whiteSpace=wrap;html=1;" vertex="1" parent="cJJyXfFSYkXoEC7p0idP-134">
          <mxGeometry x="160" y="105" width="120" height="60" as="geometry" />
        </mxCell>
        <mxCell id="cJJyXfFSYkXoEC7p0idP-133" value="Informa o cliente" style="rounded=0;whiteSpace=wrap;html=1;" vertex="1" parent="cJJyXfFSYkXoEC7p0idP-134">
          <mxGeometry x="380" y="105" width="120" height="60" as="geometry" />
        </mxCell>
        <mxCell id="cJJyXfFSYkXoEC7p0idP-131" value="Finalizado" style="rounded=0;whiteSpace=wrap;html=1;" vertex="1" parent="cJJyXfFSYkXoEC7p0idP-134">
          <mxGeometry x="550" y="105" width="120" height="60" as="geometry" />
        </mxCell>
        <mxCell id="cJJyXfFSYkXoEC7p0idP-132" value="" style="edgeStyle=orthogonalEdgeStyle;rounded=0;orthogonalLoop=1;jettySize=auto;html=1;" edge="1" parent="cJJyXfFSYkXoEC7p0idP-134" source="cJJyXfFSYkXoEC7p0idP-133" target="cJJyXfFSYkXoEC7p0idP-131">
          <mxGeometry relative="1" as="geometry" />
        </mxCell>
        <mxCell id="cJJyXfFSYkXoEC7p0idP-129" value="" style="ellipse;whiteSpace=wrap;html=1;aspect=fixed;fillColor=#a20025;fontColor=#ffffff;strokeColor=#6F0000;" vertex="1" parent="cJJyXfFSYkXoEC7p0idP-134">
          <mxGeometry x="710" y="95" width="80" height="80" as="geometry" />
        </mxCell>
        <mxCell id="cJJyXfFSYkXoEC7p0idP-130" style="edgeStyle=orthogonalEdgeStyle;rounded=0;orthogonalLoop=1;jettySize=auto;html=1;" edge="1" parent="cJJyXfFSYkXoEC7p0idP-134" source="cJJyXfFSYkXoEC7p0idP-131" target="cJJyXfFSYkXoEC7p0idP-129">
          <mxGeometry relative="1" as="geometry" />
        </mxCell>
        <mxCell id="cJJyXfFSYkXoEC7p0idP-138" style="edgeStyle=orthogonalEdgeStyle;rounded=0;orthogonalLoop=1;jettySize=auto;html=1;" edge="1" parent="1" source="cJJyXfFSYkXoEC7p0idP-137" target="cJJyXfFSYkXoEC7p0idP-114">
          <mxGeometry relative="1" as="geometry" />
        </mxCell>
        <mxCell id="cJJyXfFSYkXoEC7p0idP-140" value="N2" style="swimlane;horizontal=0;whiteSpace=wrap;html=1;startSize=23;" vertex="1" parent="1">
          <mxGeometry x="5800" y="735" width="800" height="360" as="geometry" />
        </mxCell>
        <mxCell id="cJJyXfFSYkXoEC7p0idP-141" value="" style="edgeStyle=orthogonalEdgeStyle;rounded=0;orthogonalLoop=1;jettySize=auto;html=1;" edge="1" parent="cJJyXfFSYkXoEC7p0idP-140" source="cJJyXfFSYkXoEC7p0idP-142" target="cJJyXfFSYkXoEC7p0idP-144">
          <mxGeometry relative="1" as="geometry" />
        </mxCell>
        <mxCell id="cJJyXfFSYkXoEC7p0idP-142" value="Recebe" style="rounded=0;whiteSpace=wrap;html=1;" vertex="1" parent="cJJyXfFSYkXoEC7p0idP-140">
          <mxGeometry x="151" y="50" width="120" height="60" as="geometry" />
        </mxCell>
        <mxCell id="cJJyXfFSYkXoEC7p0idP-143" value="" style="edgeStyle=orthogonalEdgeStyle;rounded=0;orthogonalLoop=1;jettySize=auto;html=1;entryX=0;entryY=0.5;entryDx=0;entryDy=0;" edge="1" parent="cJJyXfFSYkXoEC7p0idP-140" source="cJJyXfFSYkXoEC7p0idP-144" target="cJJyXfFSYkXoEC7p0idP-147">
          <mxGeometry relative="1" as="geometry" />
        </mxCell>
        <mxCell id="cJJyXfFSYkXoEC7p0idP-144" value="Investiga" style="rounded=0;whiteSpace=wrap;html=1;" vertex="1" parent="cJJyXfFSYkXoEC7p0idP-140">
          <mxGeometry x="151" y="180" width="120" height="60" as="geometry" />
        </mxCell>
        <mxCell id="cJJyXfFSYkXoEC7p0idP-146" style="edgeStyle=orthogonalEdgeStyle;rounded=0;orthogonalLoop=1;jettySize=auto;html=1;entryX=0;entryY=0.5;entryDx=0;entryDy=0;" edge="1" parent="cJJyXfFSYkXoEC7p0idP-140" source="cJJyXfFSYkXoEC7p0idP-147" target="cJJyXfFSYkXoEC7p0idP-150">
          <mxGeometry relative="1" as="geometry">
            <mxPoint x="970" y="175" as="targetPoint" />
          </mxGeometry>
        </mxCell>
        <mxCell id="cJJyXfFSYkXoEC7p0idP-161" style="edgeStyle=orthogonalEdgeStyle;rounded=0;orthogonalLoop=1;jettySize=auto;html=1;entryX=0.5;entryY=1;entryDx=0;entryDy=0;" edge="1" parent="cJJyXfFSYkXoEC7p0idP-140">
          <mxGeometry relative="1" as="geometry">
            <mxPoint x="389" y="119.99999999999977" as="sourcePoint" />
            <mxPoint x="200" y="239" as="targetPoint" />
            <Array as="points">
              <mxPoint x="389" y="259" />
              <mxPoint x="200" y="259" />
            </Array>
          </mxGeometry>
        </mxCell>
        <mxCell id="cJJyXfFSYkXoEC7p0idP-147" value="" style="rhombus;whiteSpace=wrap;html=1;rounded=0;" vertex="1" parent="cJJyXfFSYkXoEC7p0idP-140">
          <mxGeometry x="351" y="50" width="80" height="80" as="geometry" />
        </mxCell>
        <mxCell id="cJJyXfFSYkXoEC7p0idP-148" value="Resolvido?" style="text;html=1;strokeColor=none;fillColor=none;align=center;verticalAlign=middle;whiteSpace=wrap;rounded=0;" vertex="1" parent="cJJyXfFSYkXoEC7p0idP-140">
          <mxGeometry x="221" y="130" width="100" height="50" as="geometry" />
        </mxCell>
        <mxCell id="cJJyXfFSYkXoEC7p0idP-149" value="Não" style="text;html=1;strokeColor=none;fillColor=none;align=center;verticalAlign=middle;whiteSpace=wrap;rounded=0;" vertex="1" parent="cJJyXfFSYkXoEC7p0idP-140">
          <mxGeometry x="280" y="215" width="100" height="50" as="geometry" />
        </mxCell>
        <mxCell id="cJJyXfFSYkXoEC7p0idP-158" style="edgeStyle=orthogonalEdgeStyle;rounded=0;orthogonalLoop=1;jettySize=auto;html=1;" edge="1" parent="cJJyXfFSYkXoEC7p0idP-140" source="cJJyXfFSYkXoEC7p0idP-150">
          <mxGeometry relative="1" as="geometry">
            <mxPoint x="670" y="90" as="targetPoint" />
          </mxGeometry>
        </mxCell>
        <mxCell id="cJJyXfFSYkXoEC7p0idP-150" value="Atende requisição" style="whiteSpace=wrap;html=1;rounded=0;" vertex="1" parent="cJJyXfFSYkXoEC7p0idP-140">
          <mxGeometry x="500" y="60" width="120" height="60" as="geometry" />
        </mxCell>
        <mxCell id="cJJyXfFSYkXoEC7p0idP-151" value="Sim" style="text;html=1;strokeColor=none;fillColor=none;align=center;verticalAlign=middle;whiteSpace=wrap;rounded=0;" vertex="1" parent="cJJyXfFSYkXoEC7p0idP-140">
          <mxGeometry x="410" y="50" width="100" height="50" as="geometry" />
        </mxCell>
        <mxCell id="cJJyXfFSYkXoEC7p0idP-159" value="" style="shape=datastore;whiteSpace=wrap;html=1;" vertex="1" parent="cJJyXfFSYkXoEC7p0idP-140">
          <mxGeometry x="670" y="60" width="60" height="60" as="geometry" />
        </mxCell>
        <mxCell id="cJJyXfFSYkXoEC7p0idP-157" style="edgeStyle=orthogonalEdgeStyle;rounded=0;orthogonalLoop=1;jettySize=auto;html=1;" edge="1" parent="1" source="cJJyXfFSYkXoEC7p0idP-128">
          <mxGeometry relative="1" as="geometry">
            <mxPoint x="6230" y="270" as="targetPoint" />
            <Array as="points">
              <mxPoint x="6360" y="320" />
              <mxPoint x="6230" y="320" />
              <mxPoint x="6230" y="270" />
            </Array>
          </mxGeometry>
        </mxCell>
        <mxCell id="cJJyXfFSYkXoEC7p0idP-160" style="edgeStyle=orthogonalEdgeStyle;rounded=0;orthogonalLoop=1;jettySize=auto;html=1;entryX=0.75;entryY=1;entryDx=0;entryDy=0;" edge="1" parent="1" source="cJJyXfFSYkXoEC7p0idP-159" target="cJJyXfFSYkXoEC7p0idP-133">
          <mxGeometry relative="1" as="geometry">
            <Array as="points">
              <mxPoint x="6500" y="300" />
              <mxPoint x="6270" y="300" />
            </Array>
          </mxGeometry>
        </mxCell>
        <mxCell id="cJJyXfFSYkXoEC7p0idP-162" style="edgeStyle=orthogonalEdgeStyle;rounded=0;orthogonalLoop=1;jettySize=auto;html=1;entryX=0.5;entryY=0;entryDx=0;entryDy=0;" edge="1" parent="1" source="cJJyXfFSYkXoEC7p0idP-122" target="cJJyXfFSYkXoEC7p0idP-142">
          <mxGeometry relative="1" as="geometry">
            <Array as="points">
              <mxPoint x="6180" y="720" />
              <mxPoint x="6011" y="720" />
            </Array>
          </mxGeometry>
        </mxCell>
      </root>
    </mxGraphModel>
  </diagram>
</mxfile>
